<svg width="40" height="40" viewBox="0 0 40 40" fill="none" xmlns="http://www.w3.org/2000/svg">
<mask id="mask0_23_2844" style="mask-type:alpha" maskUnits="userSpaceOnUse" x="7" y="8" width="25" height="24">
<path fill-rule="evenodd" clip-rule="evenodd" d="M19.9997 10.1001C17.7745 10.1001 15.9451 10.8879 14.6876 12.3744C13.4475 13.8404 12.8497 15.8832 12.8497 18.2501L12.8497 19.0001C12.8497 21.4652 12.1665 22.9249 11.1934 23.8682C10.8118 24.2381 10.7722 24.7499 10.9086 25.1264C11.0473 25.5094 11.4274 25.9001 11.9993 25.9001H28.0002C28.572 25.9001 28.9521 25.5094 29.0908 25.1264C29.2272 24.7499 29.1876 24.2381 28.8061 23.8682C27.8329 22.9249 27.1497 21.4652 27.1497 19.0001L27.1497 18.2501C27.1497 15.8832 26.552 13.8404 25.3118 12.3744C24.0544 10.8879 22.225 10.1001 19.9997 10.1001ZM14.6497 18.2501C14.6497 16.1652 15.177 14.583 16.0619 13.5369C16.9294 12.5114 18.225 11.9001 19.9997 11.9001C21.7745 11.9001 23.0701 12.5114 23.9376 13.5369C24.8225 14.583 25.3497 16.1652 25.3497 18.2501L25.3497 19.0001C25.3497 21.1628 25.8179 22.8273 26.6684 24.1001H13.331C14.1816 22.8273 14.6497 21.1628 14.6497 19.0001L14.6497 18.2501Z" fill="#171719"/>
<path d="M17.0998 28.1001V29.9001H22.8998V28.1001H17.0998Z" fill="#171719"/>
</mask>
<g mask="url(#mask0_23_2844)">
<rect x="7.99988" y="8" width="24" height="24" fill="#171719"/>
</g>
</svg>
