<svg width="21" height="20" viewBox="0 0 21 20" fill="none" xmlns="http://www.w3.org/2000/svg">
<path d="M2.68518 5.00016C2.68518 4.59746 3.01164 4.271 3.41435 4.271H16.7477C17.1504 4.271 17.4768 4.59746 17.4768 5.00016C17.4768 5.40287 17.1504 5.72933 16.7477 5.72933H3.41435C3.01164 5.72933 2.68518 5.40287 2.68518 5.00016Z" fill="#2D2D2D"/>
<path d="M2.68518 15.0002C2.68518 14.5975 3.01164 14.271 3.41435 14.271H11.7477C12.1504 14.271 12.4768 14.5975 12.4768 15.0002C12.4768 15.4029 12.1504 15.7293 11.7477 15.7293H3.41435C3.01164 15.7293 2.68518 15.4029 2.68518 15.0002Z" fill="#2D2D2D"/>
<path d="M3.41435 9.271C3.01164 9.271 2.68518 9.59746 2.68518 10.0002C2.68518 10.4029 3.01164 10.7293 3.41435 10.7293H16.7477C17.1504 10.7293 17.4768 10.4029 17.4768 10.0002C17.4768 9.59746 17.1504 9.271 16.7477 9.271H3.41435Z" fill="#2D2D2D"/>
</svg>
