<svg width="94" height="32" viewBox="0 0 94 32" fill="none" xmlns="http://www.w3.org/2000/svg">
<mask id="mask0_4_15633" style="mask-type:alpha" maskUnits="userSpaceOnUse" x="0" y="4" width="24" height="24">
<circle cx="12" cy="16" r="12" fill="#C4C4C4"/>
</mask>
<g mask="url(#mask0_4_15633)">
<circle cx="6.29204" cy="1.86908" r="9.9559" transform="rotate(-22 6.29204 1.86908)" fill="#0A112F"/>
<circle cx="17.711" cy="30.1308" r="9.9559" transform="rotate(-22 17.711 30.1308)" fill="#0A112F"/>
<circle cx="-2.12886" cy="21.7094" r="9.9559" transform="rotate(-22 -2.12886 21.7094)" fill="#0A112F"/>
<circle cx="25.8707" cy="9.64349" r="9.9559" transform="rotate(-22 25.8707 9.64349)" fill="#0A112F"/>
</g>
<path d="M52.0391 14.9219V17.1016H43.8359V18.4375H49.7188V23.6406H37.8359V24.8125H50.2812V27.0156H34.9062V21.625H46.7656V20.5703H34.8828V18.4375H40.8594V17.1016H32.6797V14.9219H52.0391ZM33.4297 12.1328C37.6953 11.9453 39.8633 10.9258 40.4844 9.69531H34.5078V7.49219H40.8594V5.80469H43.8125V7.49219H50.2109V9.69531H44.1758C44.7852 10.9258 46.9648 11.9453 51.2656 12.1328L50.3984 14.3359C46.4375 14.1367 43.6836 13.1406 42.3359 11.5352C40.9883 13.1406 38.2461 14.1367 34.25 14.3359L33.4297 12.1328ZM70.0981 7.02344V8.82812C70.1098 10.6328 70.1098 12.6602 69.6294 15.2734H72.4184V17.6641H52.895V15.2734H66.5825C67.0513 12.8945 67.1098 11.1016 67.1216 9.41406H55.2856V7.02344H70.0981ZM55.3794 26.7578V19.5391H58.3325V24.3672H70.7075V26.7578H55.3794ZM91.4853 5.82812V19.2109H88.6494V13.5391H86.9384V18.5078H84.1494V6.22656H86.9384V11.1016H88.6494V5.82812H91.4853ZM73.04 10.3516V8.03125H76.8134V6.01562H79.79V8.03125H83.5166V10.3516H73.04ZM73.6963 14.7812C73.6845 12.543 75.6416 11.0547 78.3134 11.0547C81.0205 11.0547 82.9658 12.543 82.9775 14.7812C82.9658 16.9961 81.0205 18.4727 78.3134 18.4844C75.6416 18.4727 73.6845 16.9961 73.6963 14.7812ZM76.3681 14.7812C76.3564 15.7656 77.1416 16.3633 78.3134 16.3516C79.4736 16.3633 80.2705 15.7656 80.2822 14.7812C80.2705 13.7852 79.4736 13.1992 78.3134 13.2109C77.1533 13.1992 76.3564 13.7852 76.3681 14.7812ZM76.8134 23.2891C76.8017 20.8164 79.6025 19.4102 84.1963 19.3984C88.8017 19.4102 91.5791 20.8164 91.6025 23.2891C91.5791 25.75 88.8017 27.168 84.1963 27.1562C79.6025 27.168 76.8017 25.75 76.8134 23.2891ZM79.8134 23.2891C79.79 24.3672 81.3017 24.9062 84.1963 24.9062C87.1025 24.9062 88.5791 24.3672 88.5791 23.2891C88.5791 22.1641 87.1025 21.6367 84.1963 21.6484C81.3017 21.6367 79.79 22.1641 79.8134 23.2891Z" fill="#0A112F"/>
</svg>
