<svg width="40" height="40" viewBox="0 0 40 40" fill="none" xmlns="http://www.w3.org/2000/svg">
<mask id="mask0_23_2843" style="mask-type:alpha" maskUnits="userSpaceOnUse" x="7" y="8" width="25" height="24">
<path fill-rule="evenodd" clip-rule="evenodd" d="M17.9995 10.1001C13.6364 10.1001 10.0995 13.637 10.0995 18.0001C10.0995 22.3631 13.6364 25.9001 17.9995 25.9001C19.8568 25.9001 21.5644 25.2592 22.9132 24.1864L27.8632 29.1365C28.2147 29.4879 28.7845 29.4879 29.136 29.1365C29.4875 28.785 29.4875 28.2151 29.136 27.8637L24.1859 22.9136C25.2586 21.5648 25.8995 19.8573 25.8995 18.0001C25.8995 13.637 22.3625 10.1001 17.9995 10.1001ZM11.8995 18.0001C11.8995 14.6312 14.6305 11.9001 17.9995 11.9001C21.3684 11.9001 24.0995 14.6312 24.0995 18.0001C24.0995 21.369 21.3684 24.1001 17.9995 24.1001C14.6305 24.1001 11.8995 21.369 11.8995 18.0001Z" fill="#171719"/>
</mask>
<g mask="url(#mask0_23_2843)">
<rect x="7.99976" y="8" width="24" height="24" fill="#171719"/>
</g>
</svg>
