<svg width="16" height="16" viewBox="0 0 16 16" fill="none" xmlns="http://www.w3.org/2000/svg">
<path fill-rule="evenodd" clip-rule="evenodd" d="M2.29067 13.7895C2.45306 13.9289 2.66097 14.0038 2.87494 14L2.88673 13.9999H4.00006L4.00006 7.99992H2.88673L2.87494 7.99982C2.66097 7.99603 2.45306 8.07094 2.29067 8.21033C2.13807 8.34132 2.03565 8.52069 2.00006 8.71783V13.282C2.03565 13.4792 2.13807 13.6585 2.29067 13.7895ZM5.33339 7.47473L7.73861 2.06299C7.93954 2.12709 8.12431 2.23855 8.2762 2.39045C8.52625 2.64049 8.66673 2.97963 8.66673 3.33325L8.66673 5.99992C8.66673 6.36811 8.9652 6.66659 9.33339 6.66659H13.1067L13.1143 6.66655C13.2109 6.66545 13.3066 6.68538 13.3948 6.72495C13.483 6.76452 13.5615 6.82279 13.6249 6.89572C13.6883 6.96864 13.7351 7.05449 13.7621 7.1473C13.789 7.23998 13.7954 7.33741 13.781 7.43283C13.781 7.4327 13.781 7.43296 13.781 7.43283L12.8609 13.4333C12.8368 13.5923 12.7561 13.7372 12.6336 13.8413C12.5111 13.9454 12.355 14.0018 12.1943 14L5.33339 13.9999L5.33339 7.47473ZM2.8921 15.3333C2.35371 15.3412 1.83091 15.152 1.42223 14.8012C1.01193 14.449 0.745225 13.9585 0.672744 13.4226C0.668739 13.393 0.666729 13.3631 0.666729 13.3333V8.66659C0.666729 8.6367 0.668739 8.60685 0.672744 8.57723C0.745226 8.04138 1.01193 7.55079 1.42223 7.1986C1.83091 6.84781 2.35371 6.65863 2.89209 6.66659H4.23348L6.72419 1.06249C6.83119 0.821743 7.06994 0.666587 7.33339 0.666587C8.04064 0.666587 8.71892 0.947539 9.21901 1.44764C9.71911 1.94773 10.0001 2.62601 10.0001 3.33325L10.0001 5.33325H13.1033C13.3918 5.33058 13.6775 5.39037 13.9408 5.50852C14.2053 5.62723 14.4408 5.80203 14.631 6.02081C14.8213 6.23959 14.9617 6.49712 15.0425 6.77555C15.1234 7.05398 15.1427 7.34665 15.0992 7.6333L14.1792 13.6332C14.1792 13.6334 14.1792 13.633 14.1792 13.6332C14.1068 14.1099 13.8645 14.545 13.4971 14.8572C13.1306 15.1687 12.6642 15.3377 12.1833 15.3333L2.8921 15.3333Z" fill="#888893"/>
</svg>
