<svg width="100" height="43" viewBox="0 0 100 43" fill="none" xmlns="http://www.w3.org/2000/svg">
<rect y="0.462891" width="100" height="42.0732" rx="5.80319" fill="#3B64F6"/>
<rect x="6.0127" y="4.67188" width="33.6585" height="33.6585" rx="4.64255" fill="#3B64F6"/>
<path d="M27.2264 18.8718C25.4335 15.7664 20.9512 15.7664 19.1583 18.8718L14.418 27.0823C12.6251 30.1877 14.8662 34.0694 18.4521 34.0694H27.9327C31.5185 34.0694 33.7597 30.1877 31.9667 27.0822L27.2264 18.8718Z" fill="url(#paint0_linear_24_6935)" stroke="#3B64F6" stroke-width="1.16064"/>
<path d="M21.2226 20.1499C22.087 18.6527 24.2479 18.6527 25.1123 20.1499L29.7657 28.2097C30.6301 29.7069 29.5496 31.5783 27.8208 31.5783H18.5141C16.7853 31.5783 15.7048 29.7069 16.5692 28.2097L21.2226 20.1499Z" fill="#3B64F6"/>
<path fill-rule="evenodd" clip-rule="evenodd" d="M22.6106 23.416C22.9311 23.416 23.1909 23.6758 23.1909 23.9963V26.1435C23.1909 26.464 23.4507 26.7238 23.7712 26.7238H26.0345C26.355 26.7238 26.6148 26.9837 26.6148 27.3042C26.6148 27.6247 26.355 27.8845 26.0345 27.8845H23.1909C22.5499 27.8845 22.0303 27.3648 22.0303 26.7238V23.9963C22.0303 23.6758 22.2901 23.416 22.6106 23.416Z" fill="white"/>
<path d="M24.8741 16.1691V9.2561C24.8741 8.9356 24.6143 8.67578 24.2938 8.67578H22.0305C21.71 8.67578 21.4502 8.9356 21.4502 9.2561V16.1691C21.4502 16.3334 21.62 16.4423 21.7681 16.3727C22.1914 16.1737 22.6639 16.0625 23.1621 16.0625C23.6604 16.0625 24.1328 16.1737 24.5562 16.3727C24.7042 16.4423 24.8741 16.3334 24.8741 16.1691Z" fill="url(#paint1_linear_24_6935)"/>
<ellipse cx="23.2331" cy="13.986" rx="0.841464" ry="0.841463" fill="#3B64F6"/>
<path d="M45.0298 17.667C45.6965 17.6019 46.4119 17.3092 46.4119 17.1954V17.0653H41.7453V15.0816H46.4119V13.9109H49.4038V15.0816H54.103V17.0653H49.4038V17.1954C49.4038 17.3092 49.9241 17.4231 50.7209 17.5369C52.0705 17.7157 53.5176 17.8621 54.2818 17.8783L54.2656 19.9434C53.2574 19.9109 51.3062 19.7157 50.5745 19.6344C49.0623 19.3743 48.3306 19.2442 47.9079 18.9515C47.4201 19.3092 46.542 19.5369 45.2737 19.6832C44.2006 19.7645 42.7209 19.9271 41.5502 19.9434L41.5339 17.8783C42.6233 17.8621 43.8916 17.7483 45.0298 17.667ZM54.9973 20.4474V22.4312H49.3225V23.0816H53.9404V26.984H44.6721V27.5206H54.103V29.3742H41.8103V25.358H51.0786V24.8214H41.8103V23.0816H46.4607V22.4312H40.8185V20.4474H54.9973ZM68.9392 19.5857H66.1912V16.9678H57.2644V14.4962H69.1018L68.9392 19.5857ZM70.2887 23.0328H56.1099V20.5613H70.2887V23.0328ZM69.3457 29.0002H57.2969V24.0572H60.3213V26.6263H69.3457V29.0002ZM76.4908 15.4393H78.9461V17.5531H71.3526V15.4393H73.8079V14.2036H76.4908V15.4393ZM83.0437 20.2686H82.1981V22.8864H79.5965V14.2849H82.1981V17.8296H83.0437V14.2523H85.6778V23.4393H83.0437V20.2686ZM78.816 20.7076C78.816 22.1547 77.629 23.3417 75.2713 23.3417C72.8974 23.3417 71.7104 22.1547 71.7104 20.7076C71.7104 19.2604 72.9136 18.0409 75.2713 18.0409C77.629 18.0409 78.816 19.2604 78.816 20.7076ZM74.0843 20.7076C74.0843 21.0491 74.4258 21.4556 75.2713 21.4556C76.1006 21.4556 76.4583 21.0491 76.4583 20.7076C76.4583 20.3661 76.1006 19.9596 75.2713 19.9596C74.4258 19.9596 74.0843 20.3661 74.0843 20.7076ZM79.19 23.6832C83.9867 23.6832 85.8404 24.7238 85.8404 26.61C85.8404 28.5124 83.9705 29.4718 79.19 29.4718C74.4258 29.4718 72.5396 28.5124 72.5396 26.61C72.5396 24.7238 74.4095 23.6832 79.19 23.6832ZM79.19 27.3092C82.068 27.3092 82.816 27.0816 82.816 26.61C82.816 26.0734 82.0843 25.8295 79.19 25.8295C76.312 25.8295 75.564 26.0734 75.564 26.61C75.564 27.0816 76.3282 27.3092 79.19 27.3092Z" fill="url(#paint2_linear_24_6935)"/>
<defs>
<linearGradient id="paint0_linear_24_6935" x1="23.1924" y1="15.9883" x2="23.2006" y2="50.4883" gradientUnits="userSpaceOnUse">
<stop offset="0.438695" stop-color="white"/>
<stop offset="0.807849" stop-color="#3B64F6" stop-opacity="0"/>
</linearGradient>
<linearGradient id="paint1_linear_24_6935" x1="23.1621" y1="12.5059" x2="23.1621" y2="21.3848" gradientUnits="userSpaceOnUse">
<stop stop-color="white"/>
<stop offset="1" stop-color="#3B64F6" stop-opacity="0"/>
</linearGradient>
<linearGradient id="paint2_linear_24_6935" x1="63.4364" y1="15.503" x2="63.4211" y2="45.0221" gradientUnits="userSpaceOnUse">
<stop offset="0.42884" stop-color="white"/>
<stop offset="0.657257" stop-color="#3B64F6" stop-opacity="0"/>
</linearGradient>
</defs>
</svg>
