<svg width="655" height="218" viewBox="0 0 655 218" fill="none" xmlns="http://www.w3.org/2000/svg">
<path d="M16.8916 120.961V122.135H9.73691V123.765H14.8612V127.522H4.54354V129.207H15.3861V130.395H3.03801V126.431H13.3557V124.912H2.99657V123.765H8.21757V122.135H1.0905V120.961H16.8916ZM1.93304 118.986C5.12365 118.779 7.83773 117.688 8.12088 115.948H2.70652V114.746H8.23138V113.13H9.73691V114.746H15.2894V115.948H9.8405C10.1167 117.688 12.8308 118.779 16.0352 118.986L15.5656 120.16C12.6651 119.919 10.0477 119.007 8.98414 117.356C7.92061 119.007 5.3032 119.919 2.38884 120.16L1.93304 118.986ZM19.8132 113.959V116.459H24.8685V113.959H26.3878V121.514H18.3077V113.959H19.8132ZM19.8132 120.271H24.8685V117.66H19.8132V120.271ZM20.0618 124.249V123.019H31.1392V127.218H21.6088V129.138H31.7745V130.395H20.1033V126.058H29.6199V124.249H20.0618ZM29.606 122.204V113.227H31.1392V116.997H33.7497V118.268H31.1392V122.204H29.606ZM40.2625 118.558C40.2625 121.5 42.4034 124.497 44.9586 125.602L44.1022 126.818C42.0719 125.892 40.3246 123.896 39.5097 121.5C38.6948 124.041 36.9406 126.251 34.9586 127.246L34.047 126.03C36.5332 124.843 38.7017 121.555 38.7155 118.558V116.293H34.6133V115.008H44.3923V116.293H40.2625V118.558ZM46.8232 130.588V113.227H48.3564V130.588H46.8232Z" fill="#74747E"/>
<path d="M619.096 121.362V122.605H613.737V127.108H620.974V128.392H605.077V127.108H612.218V122.605H607.107V114.635H618.93V115.892H608.64V121.362H619.096ZM627.487 117.011C627.487 119.166 629.228 121.141 631.797 121.901L631.051 123.13C629.062 122.501 627.515 121.162 626.748 119.463C625.996 121.327 624.4 122.771 622.363 123.448L621.589 122.246C624.172 121.445 625.968 119.359 625.968 117.011V116.624H622.045V115.381H625.968V113.157H627.515V115.381H631.396V116.624H627.487V117.011ZM623.772 125.989V124.732H635.139V130.616H633.606V125.989H623.772ZM633.606 123.82V113.227H635.139V117.867H637.75V119.18H635.139V123.82H633.606ZM644.262 118.558C644.262 121.5 646.403 124.497 648.959 125.602L648.102 126.818C646.072 125.892 644.325 123.896 643.51 121.5C642.695 124.041 640.941 126.251 638.959 127.246L638.047 126.03C640.533 124.843 642.702 121.555 642.716 118.558V116.293H638.613V115.008H648.392V116.293H644.262V118.558ZM650.823 130.588V113.227H652.356V130.588H650.823Z" fill="#74747E"/>
<circle cx="339.909" cy="119.909" r="97.3522" fill="#3B64F6" fill-opacity="0.04" stroke="white" stroke-width="1.11419"/>
<circle cx="339.909" cy="119.909" r="75.3474" fill="#3B64F6" fill-opacity="0.05" stroke="white" stroke-width="1.11419"/>
<circle cx="339.786" cy="119.786" r="56.4331" fill="#3B64F6" fill-opacity="0.2" stroke="white" stroke-width="1.11419"/>
<path d="M333.98 96.793C334.835 96.793 335.529 97.4867 335.529 98.3425V129.416C335.529 130.272 334.835 130.966 333.98 130.966H303.005C302.149 130.966 301.456 130.272 301.456 129.416V104.373C301.456 100.187 304.849 96.793 309.036 96.793H333.98Z" fill="#3B64F6" stroke="black" stroke-width="1.08884"/>
<path fill-rule="evenodd" clip-rule="evenodd" d="M320.026 153.043C316.808 151.105 314.088 148.583 311.963 145.66L310.732 145.573C307.714 145.361 305.24 143.086 304.775 140.095C304.402 137.694 305.388 135.457 307.1 134.074C306.261 129.091 306.768 123.752 308.873 118.541L309.134 117.896L310.36 115.488C316.796 102.85 331.387 96.0438 345.043 99.3103C358.175 102.451 366.91 114.078 366.136 127.386L365.897 131.51C365.792 133.301 365.502 135.085 365.029 136.835C363.07 144.091 358.265 150.004 352.112 153.67C352.037 153.983 351.941 154.295 351.825 154.604L350.78 157.377L355.23 157.944C357.382 158.218 357.948 161.072 356.064 162.147C355.663 162.376 355.209 162.497 354.747 162.497H340.815C340.773 162.499 340.73 162.501 340.687 162.501H324.38C322.53 162.501 321.03 161.001 321.03 159.15V157.374L320.026 153.043Z" fill="#FCFCFC"/>
<path d="M311.963 145.66L312.001 145.117L312.254 145.134L312.403 145.34L311.963 145.66ZM320.026 153.043L320.306 152.576L320.504 152.695L320.556 152.92L320.026 153.043ZM310.732 145.573L310.77 145.03L310.732 145.573ZM304.775 140.095L304.237 140.179L304.775 140.095ZM307.1 134.074L307.637 133.983L307.69 134.297L307.442 134.497L307.1 134.074ZM308.873 118.541L309.378 118.745L308.873 118.541ZM309.134 117.896L308.629 117.692L308.638 117.67L308.649 117.649L309.134 117.896ZM310.36 115.488L310.845 115.735L310.36 115.488ZM345.043 99.3103L344.916 99.8398L345.043 99.3103ZM366.136 127.386L365.593 127.355L366.136 127.386ZM365.897 131.51L366.44 131.542L365.897 131.51ZM365.029 136.835L364.504 136.694L365.029 136.835ZM352.112 153.67L351.583 153.543L351.636 153.32L351.833 153.202L352.112 153.67ZM351.825 154.604L352.334 154.796H352.334L351.825 154.604ZM350.78 157.377L350.711 157.917L350.028 157.83L350.271 157.185L350.78 157.377ZM355.23 157.944L355.299 157.404H355.299L355.23 157.944ZM356.064 162.147L356.334 162.62L356.064 162.147ZM340.815 162.497L340.783 161.953L340.799 161.952H340.815V162.497ZM321.03 157.374L321.56 157.251L321.575 157.311V157.374H321.03ZM312.403 145.34C314.486 148.204 317.152 150.676 320.306 152.576L319.745 153.509C316.464 151.533 313.69 148.961 311.523 145.98L312.403 145.34ZM310.77 145.03L312.001 145.117L311.925 146.203L310.694 146.116L310.77 145.03ZM305.313 140.012C305.739 142.752 308.006 144.836 310.77 145.03L310.694 146.116C307.422 145.887 304.741 143.421 304.237 140.179L305.313 140.012ZM307.442 134.497C305.873 135.766 304.971 137.813 305.313 140.012L304.237 140.179C303.832 137.576 304.903 135.149 306.758 133.65L307.442 134.497ZM309.378 118.745C307.31 123.863 306.814 129.1 307.637 133.983L306.563 134.164C305.707 129.082 306.225 123.641 308.368 118.337L309.378 118.745ZM309.639 118.1L309.378 118.745L308.368 118.337L308.629 117.692L309.639 118.1ZM310.845 115.735L309.619 118.143L308.649 117.649L309.875 115.241L310.845 115.735ZM344.916 99.8398C331.508 96.6326 317.168 103.318 310.845 115.735L309.875 115.241C316.423 102.382 331.265 95.4549 345.17 98.7808L344.916 99.8398ZM365.593 127.355C366.351 114.315 357.797 102.921 344.916 99.8398L345.17 98.7808C358.553 101.982 367.469 113.841 366.68 127.418L365.593 127.355ZM365.353 131.479L365.593 127.355L366.68 127.418L366.44 131.542L365.353 131.479ZM364.504 136.694C364.967 134.978 365.251 133.231 365.353 131.479L366.44 131.542C366.334 133.37 366.037 135.191 365.555 136.977L364.504 136.694ZM351.833 153.202C357.874 149.603 362.584 143.803 364.504 136.694L365.555 136.977C363.556 144.379 358.656 150.404 352.391 154.138L351.833 153.202ZM351.315 154.412C351.424 154.124 351.513 153.834 351.583 153.543L352.641 153.797C352.561 154.132 352.459 154.466 352.334 154.796L351.315 154.412ZM350.271 157.185L351.315 154.412L352.334 154.796L351.29 157.569L350.271 157.185ZM355.161 158.484L350.711 157.917L350.849 156.837L355.299 157.404L355.161 158.484ZM355.794 161.674C357.224 160.858 356.794 158.692 355.161 158.484L355.299 157.404C357.969 157.744 358.672 161.286 356.334 162.62L355.794 161.674ZM354.747 161.952C355.114 161.952 355.475 161.856 355.794 161.674L356.334 162.62C355.85 162.896 355.303 163.041 354.747 163.041V161.952ZM340.815 161.952H354.747V163.041H340.815V161.952ZM340.687 161.956C340.719 161.956 340.751 161.955 340.783 161.953L340.848 163.04C340.795 163.043 340.741 163.045 340.687 163.045V161.956ZM324.38 161.956H340.687V163.045H324.38V161.956ZM321.575 159.15C321.575 160.7 322.831 161.956 324.38 161.956V163.045C322.229 163.045 320.486 161.301 320.486 159.15H321.575ZM321.575 157.374V159.15H320.486V157.374H321.575ZM320.556 152.92L321.56 157.251L320.5 157.497L319.495 153.166L320.556 152.92Z" fill="black"/>
<rect x="0.662705" y="-0.384122" width="5.42763" height="17.5459" transform="matrix(-0.965039 -0.262108 -0.252226 0.967668 322.651 105.755)" fill="#3B64F6" stroke="black" stroke-width="1.08884"/>
<rect x="0.747251" y="0.152256" width="5.48448" height="12.0224" transform="matrix(-0.543774 -0.839232 -0.828786 0.559566 316.736 124.335)" fill="#3B64F6" stroke="black" stroke-width="1.08884"/>
<rect x="0.216842" y="-0.745696" width="5.44267" height="14.7607" transform="matrix(-0.87221 0.489131 0.473911 0.880572 361.496 106.604)" fill="#3B64F6" stroke="black" stroke-width="1.08884"/>
<path d="M346.332 113.176C346.538 112.381 345.937 111.606 345.115 111.606H336.232C335.406 111.606 334.804 112.389 335.018 113.187L336.588 119.05C336.735 119.599 337.233 119.981 337.802 119.981H343.599C344.172 119.981 344.672 119.594 344.816 119.039L346.332 113.176Z" fill="#3B64F6"/>
<mask id="path-13-inside-1_11_247" fill="white">
<path fill-rule="evenodd" clip-rule="evenodd" d="M311.248 42.1423C306.234 44.7889 303.941 51.6426 306.424 56.5611L307.841 59.3695C307.948 59.5812 308.062 59.7854 308.183 59.9819C306.587 63.8294 305.712 68.2971 305.712 73.4124C305.712 89.9126 309.824 113.7 342.677 113.7C373.877 113.7 379.641 90.6664 379.641 73.4124C379.641 68.9354 378.971 64.9545 377.734 61.4513C378.32 60.8714 378.828 60.175 379.235 59.3695L380.652 56.5611C383.135 51.6426 380.842 44.7889 375.828 42.1423L371.771 40.0004C367.243 37.61 362.408 39.6723 360.87 44.3904C355.499 42.2152 349.29 41.1659 342.677 41.1659C336.675 41.1659 331.008 42.0298 325.997 43.8148C324.266 39.5082 319.645 37.7095 315.305 40.0004L311.248 42.1423Z"/>
</mask>
<path fill-rule="evenodd" clip-rule="evenodd" d="M311.248 42.1423C306.234 44.7889 303.941 51.6426 306.424 56.5611L307.841 59.3695C307.948 59.5812 308.062 59.7854 308.183 59.9819C306.587 63.8294 305.712 68.2971 305.712 73.4124C305.712 89.9126 309.824 113.7 342.677 113.7C373.877 113.7 379.641 90.6664 379.641 73.4124C379.641 68.9354 378.971 64.9545 377.734 61.4513C378.32 60.8714 378.828 60.175 379.235 59.3695L380.652 56.5611C383.135 51.6426 380.842 44.7889 375.828 42.1423L371.771 40.0004C367.243 37.61 362.408 39.6723 360.87 44.3904C355.499 42.2152 349.29 41.1659 342.677 41.1659C336.675 41.1659 331.008 42.0298 325.997 43.8148C324.266 39.5082 319.645 37.7095 315.305 40.0004L311.248 42.1423Z" fill="url(#paint0_linear_11_247)"/>
<path d="M306.424 56.5611L305.452 57.0518L306.424 56.5611ZM311.248 42.1423L310.739 41.1793V41.1793L311.248 42.1423ZM307.841 59.3695L306.869 59.8601V59.8601L307.841 59.3695ZM308.183 59.9819L309.111 59.4127L309.401 59.8861L309.188 60.399L308.183 59.9819ZM377.734 61.4513L376.707 61.8138L376.477 61.163L376.968 60.6774L377.734 61.4513ZM379.235 59.3695L380.207 59.8601H380.207L379.235 59.3695ZM380.652 56.5611L379.68 56.0705L380.652 56.5611ZM375.828 42.1423L376.337 41.1793L375.828 42.1423ZM371.771 40.0004L372.279 39.0374V39.0374L371.771 40.0004ZM360.87 44.3904L361.905 44.728L361.543 45.8378L360.461 45.3996L360.87 44.3904ZM325.997 43.8148L326.363 44.8405L325.377 45.1916L324.987 44.221L325.997 43.8148ZM315.305 40.0004L314.797 39.0374V39.0374L315.305 40.0004ZM305.452 57.0518C302.689 51.578 305.226 44.0897 310.739 41.1793L311.756 43.1052C307.242 45.4881 305.193 51.7072 307.396 56.0705L305.452 57.0518ZM306.869 59.8601L305.452 57.0518L307.396 56.0705L308.813 58.8788L306.869 59.8601ZM307.254 60.5511C307.118 60.3287 306.989 60.0983 306.869 59.8601L308.813 58.8788C308.907 59.0641 309.006 59.2421 309.111 59.4127L307.254 60.5511ZM304.624 73.4124C304.624 68.1719 305.52 63.5602 307.177 59.5649L309.188 60.399C307.654 64.0986 306.801 68.4222 306.801 73.4124H304.624ZM342.677 114.788C325.946 114.788 316.326 108.705 310.958 100.331C305.649 92.0496 304.624 81.7139 304.624 73.4124H306.801C306.801 81.6111 307.831 91.4189 312.791 99.1559C317.692 106.8 326.554 112.611 342.677 112.611V114.788ZM380.73 73.4124C380.73 82.1263 379.28 92.4564 373.761 100.635C368.191 108.891 358.587 114.788 342.677 114.788V112.611C357.967 112.611 366.845 106.992 371.956 99.4172C377.119 91.766 378.552 81.9525 378.552 73.4124H380.73ZM378.761 61.0889C380.043 64.7212 380.73 68.8262 380.73 73.4124H378.552C378.552 69.0446 377.898 65.1878 376.707 61.8138L378.761 61.0889ZM380.207 59.8601C379.749 60.7668 379.172 61.5597 378.5 62.2252L376.968 60.6774C377.467 60.1831 377.907 59.5832 378.263 58.8788L380.207 59.8601ZM381.624 57.0518L380.207 59.8601L378.263 58.8788L379.68 56.0705L381.624 57.0518ZM376.337 41.1793C381.85 44.0897 384.387 51.578 381.624 57.0518L379.68 56.0705C381.883 51.7072 379.834 45.4881 375.32 43.1052L376.337 41.1793ZM372.279 39.0374L376.337 41.1793L375.32 43.1052L371.263 40.9633L372.279 39.0374ZM359.835 44.0529C360.696 41.4113 362.504 39.4582 364.786 38.5223C367.072 37.5851 369.749 37.702 372.279 39.0374L371.263 40.9633C369.264 39.9084 367.261 39.8612 365.612 40.5371C363.961 41.2143 362.582 42.6515 361.905 44.728L359.835 44.0529ZM342.677 40.0771C349.401 40.0771 355.753 41.1433 361.279 43.3812L360.461 45.3996C355.245 43.287 349.18 42.2548 342.677 42.2548V40.0771ZM325.632 42.7891C330.78 40.9551 336.574 40.0771 342.677 40.0771V42.2548C336.776 42.2548 331.236 43.1044 326.363 44.8405L325.632 42.7891ZM314.797 39.0374C319.708 36.4452 325.035 38.5028 327.007 43.4087L324.987 44.221C323.496 40.5137 319.582 38.9739 315.814 40.9633L314.797 39.0374ZM310.739 41.1793L314.797 39.0374L315.814 40.9633L311.756 43.1052L310.739 41.1793Z" fill="black" mask="url(#path-13-inside-1_11_247)"/>
<path d="M376.416 54.776C378.512 52.5866 378.027 48.965 375.427 47.3838L371.027 44.7084C368.513 43.1795 365.269 44.3299 364.266 47.1064C363.492 49.25 364.339 51.663 366.28 52.8435L370.679 55.5188C372.542 56.6513 374.915 56.344 376.416 54.776Z" fill="#B4C9FF"/>
<path d="M360.769 75.5957C360.769 71.2907 357.279 67.8008 352.974 67.8008C348.669 67.8008 345.179 71.2907 345.179 75.5957V89.8289H360.769V75.5957Z" fill="white"/>
<path d="M354.01 80.7831C352.622 80.7831 351.497 81.9081 351.497 83.2958L351.497 88.5725C351.497 89.9602 352.622 91.0852 354.01 91.0852L354.153 91.0852C355.541 91.0852 356.666 89.9602 356.666 88.5725L356.666 83.2958C356.666 81.9081 355.541 80.7831 354.153 80.7831L354.01 80.7831Z" fill="black"/>
<path d="M354.349 83.8707C354.279 83.5092 353.761 83.5092 353.691 83.8707L353.493 84.8932C353.467 85.0264 353.363 85.1308 353.23 85.1577L352.196 85.3669C351.838 85.4394 351.838 85.9512 352.196 86.0237L353.23 86.2329C353.363 86.2598 353.467 86.3642 353.493 86.4974L353.691 87.5198C353.761 87.8814 354.279 87.8814 354.349 87.5198L354.548 86.4974C354.573 86.3642 354.677 86.2598 354.81 86.2329L355.844 86.0237C356.202 85.9512 356.202 85.4394 355.844 85.3669L354.81 85.1577C354.677 85.1308 354.573 85.0264 354.548 84.8932L354.349 83.8707Z" fill="#FEF08A"/>
<path d="M366.184 100.716C366.184 94.0094 360.747 88.5725 354.04 88.5725C347.334 88.5725 341.897 94.0094 341.897 100.716V100.969H366.184V100.716Z" fill="#FEFEFE"/>
<path d="M338.42 80.7831C337.032 80.7831 335.907 81.9081 335.907 83.2958L335.907 88.5725C335.907 89.9602 337.032 91.0852 338.42 91.0852L338.564 91.0852C339.952 91.0852 341.077 89.9602 341.077 88.5725L341.077 83.2958C341.077 81.9081 339.952 80.7831 338.564 80.7831L338.42 80.7831Z" fill="black"/>
<path d="M338.759 83.8707C338.689 83.5092 338.172 83.5092 338.102 83.8707L337.903 84.8932C337.877 85.0264 337.774 85.1308 337.641 85.1577L336.607 85.3669C336.249 85.4394 336.249 85.9512 336.607 86.0237L337.641 86.2329C337.774 86.2598 337.877 86.3642 337.903 86.4974L338.102 87.5198C338.172 87.8814 338.689 87.8814 338.759 87.5198L338.958 86.4974C338.984 86.3642 339.087 86.2598 339.22 86.2329L340.254 86.0237C340.612 85.9512 340.612 85.4394 340.254 85.3669L339.22 85.1577C339.087 85.1308 338.984 85.0264 338.958 84.8932L338.759 83.8707Z" fill="#FEF08A"/>
<path d="M350.594 100.716C350.594 94.0094 345.157 88.5725 338.451 88.5725C331.744 88.5725 326.307 94.0094 326.307 100.716V100.969H350.594V100.716Z" fill="#FEFEFE"/>
<path d="M352.153 102.117C348.949 104.031 340.32 106.712 331.441 102.117C327.174 99.909 324.39 96.6248 322.637 93.3591" stroke="black" stroke-width="1.08884" stroke-linecap="round"/>
<path d="M310.843 54.5579C308.702 52.4145 309.109 48.7836 311.674 47.1471L316.023 44.3726C318.503 42.7903 321.768 43.871 322.829 46.6252C323.648 48.7511 322.853 51.1809 320.939 52.4023L316.59 55.1768C314.754 56.3485 312.377 56.0925 310.843 54.5579Z" fill="#B4C9FF"/>
<path d="M315.823 87.3188C315.343 85.2933 316.879 83.3501 318.961 83.3501L322.419 83.3501C324.432 83.3501 325.953 85.1746 325.591 87.155C325.311 88.6867 323.976 89.7994 322.419 89.7994L318.961 89.7994C317.466 89.7994 316.168 88.7728 315.823 87.3188Z" fill="#FEDADA"/>
<path d="M363.249 87.3188C362.768 85.2933 364.305 83.3501 366.386 83.3501L369.845 83.3501C371.858 83.3501 373.379 85.1746 373.017 87.155C372.736 88.6867 371.402 89.7994 369.845 89.7994L366.386 89.7994C364.892 89.7994 363.594 88.7728 363.249 87.3188Z" fill="#FEDADA"/>
<path d="M346.287 92.9696C346.683 94.4493 347.312 96.9062 347.312 99.4608C347.312 102.769 346.287 104.026 346.287 104.026" stroke="black" stroke-width="1.08884" stroke-linecap="round"/>
<rect width="6.48205" height="4.18786" rx="2.01017" transform="matrix(-1 0 0 1 349.528 89.8287)" fill="#3B64F6"/>
<ellipse cx="0.574359" cy="0.5863" rx="0.574359" ry="0.5863" transform="matrix(-1 0 0 1 355.846 82.2069)" fill="white"/>
<ellipse cx="0.574359" cy="0.5863" rx="0.574359" ry="0.5863" transform="matrix(-1 0 0 1 340.256 82.2069)" fill="white"/>
<path d="M348.851 138.104L345.142 121.879C345.011 121.308 344.503 120.903 343.917 120.903H338.559C337.865 120.903 337.302 121.465 337.302 122.159V138.041C337.302 138.369 337.43 138.683 337.659 138.918L343.702 145.117C344.301 145.731 345.325 145.578 345.718 144.817L348.743 138.96C348.879 138.697 348.917 138.393 348.851 138.104Z" fill="#3B64F6"/>
<path d="M346.123 122.62L335.989 128.273" stroke="white" stroke-width="1.08884"/>
<path d="M347.148 128.273L337.015 133.927" stroke="white" stroke-width="1.08884"/>
<path d="M348.625 135.225L338.492 140.879" stroke="white" stroke-width="1.08884"/>
<path d="M311.525 125.864C308.689 124.852 307.464 121.453 308.997 118.847L310.932 115.558C312.42 113.03 315.792 112.475 318.024 114.392C319.801 115.919 320.237 118.522 319.052 120.536L317.116 123.826C315.973 125.768 313.64 126.619 311.525 125.864Z" fill="url(#paint1_linear_11_247)" stroke="black" stroke-width="1.08884"/>
<path d="M363.546 114.369C366.211 112.994 369.436 114.426 370.196 117.32L371.208 121.177C371.945 123.984 369.996 126.808 367.114 127.109C364.826 127.348 362.718 125.888 362.132 123.659L361.12 119.803C360.556 117.654 361.567 115.389 363.546 114.369Z" fill="url(#paint2_linear_11_247)" stroke="black" stroke-width="1.08884"/>
<path d="M339.62 155.381L339.005 157.768L342.855 158.577C343.863 158.789 344.585 159.678 344.585 160.708V161.328C344.585 161.975 344.06 162.5 343.412 162.5H340.4" stroke="black" stroke-width="1.08884" stroke-linecap="round"/>
<rect x="38" y="162" width="578" height="27" fill="url(#paint3_linear_11_247)" stroke="white" stroke-width="2"/>
<path d="M338.5 175.134C339.167 175.519 339.167 176.481 338.5 176.866L329.5 182.062C328.833 182.447 328 181.966 328 181.196L328 170.804C328 170.034 328.833 169.553 329.5 169.938L338.5 175.134Z" fill="white"/>
<path d="M366.5 175.134C367.167 175.519 367.167 176.481 366.5 176.866L360.5 180.33C359.833 180.715 359 180.234 359 179.464L359 172.536C359 171.766 359.833 171.285 360.5 171.67L366.5 175.134Z" fill="white"/>
<path d="M297.5 175.134C296.833 175.519 296.833 176.481 297.5 176.866L303.5 180.33C304.167 180.715 305 180.234 305 179.464L305 172.536C305 171.766 304.167 171.285 303.5 171.67L297.5 175.134Z" fill="white"/>
<path d="M386.5 175.134C387.167 175.519 387.167 176.481 386.5 176.866L380.5 180.33C379.833 180.715 379 180.234 379 179.464L379 172.536C379 171.766 379.833 171.285 380.5 171.67L386.5 175.134Z" fill="white"/>
<path d="M277.5 175.134C276.833 175.519 276.833 176.481 277.5 176.866L283.5 180.33C284.167 180.715 285 180.234 285 179.464L285 172.536C285 171.766 284.167 171.285 283.5 171.67L277.5 175.134Z" fill="white"/>
<path d="M406.5 175.134C407.167 175.519 407.167 176.481 406.5 176.866L400.5 180.33C399.833 180.715 399 180.234 399 179.464L399 172.536C399 171.766 399.833 171.285 400.5 171.67L406.5 175.134Z" fill="white"/>
<path d="M257.5 175.134C256.833 175.519 256.833 176.481 257.5 176.866L263.5 180.33C264.167 180.715 265 180.234 265 179.464L265 172.536C265 171.766 264.167 171.285 263.5 171.67L257.5 175.134Z" fill="white"/>
<path d="M426.5 175.134C427.167 175.519 427.167 176.481 426.5 176.866L420.5 180.33C419.833 180.715 419 180.234 419 179.464L419 172.536C419 171.766 419.833 171.285 420.5 171.67L426.5 175.134Z" fill="white"/>
<path d="M237.5 175.134C236.833 175.519 236.833 176.481 237.5 176.866L243.5 180.33C244.167 180.715 245 180.234 245 179.464L245 172.536C245 171.766 244.167 171.285 243.5 171.67L237.5 175.134Z" fill="white"/>
<path d="M446.5 175.134C447.167 175.519 447.167 176.481 446.5 176.866L440.5 180.33C439.833 180.715 439 180.234 439 179.464L439 172.536C439 171.766 439.833 171.285 440.5 171.67L446.5 175.134Z" fill="white"/>
<path d="M217.5 175.134C216.833 175.519 216.833 176.481 217.5 176.866L223.5 180.33C224.167 180.715 225 180.234 225 179.464L225 172.536C225 171.766 224.167 171.285 223.5 171.67L217.5 175.134Z" fill="white"/>
<path d="M466.5 175.134C467.167 175.519 467.167 176.481 466.5 176.866L460.5 180.33C459.833 180.715 459 180.234 459 179.464L459 172.536C459 171.766 459.833 171.285 460.5 171.67L466.5 175.134Z" fill="white"/>
<path d="M197.5 175.134C196.833 175.519 196.833 176.481 197.5 176.866L203.5 180.33C204.167 180.715 205 180.234 205 179.464L205 172.536C205 171.766 204.167 171.285 203.5 171.67L197.5 175.134Z" fill="white"/>
<path d="M486.5 175.134C487.167 175.519 487.167 176.481 486.5 176.866L480.5 180.33C479.833 180.715 479 180.234 479 179.464L479 172.536C479 171.766 479.833 171.285 480.5 171.67L486.5 175.134Z" fill="white"/>
<path d="M177.5 175.134C176.833 175.519 176.833 176.481 177.5 176.866L183.5 180.33C184.167 180.715 185 180.234 185 179.464L185 172.536C185 171.766 184.167 171.285 183.5 171.67L177.5 175.134Z" fill="white"/>
<path d="M506.5 175.134C507.167 175.519 507.167 176.481 506.5 176.866L500.5 180.33C499.833 180.715 499 180.234 499 179.464L499 172.536C499 171.766 499.833 171.285 500.5 171.67L506.5 175.134Z" fill="white"/>
<path d="M157.5 175.134C156.833 175.519 156.833 176.481 157.5 176.866L163.5 180.33C164.167 180.715 165 180.234 165 179.464L165 172.536C165 171.766 164.167 171.285 163.5 171.67L157.5 175.134Z" fill="white"/>
<circle cx="25" cy="176" r="20" fill="#B4C9FF"/>
<circle cx="25" cy="176" r="14" fill="#FEFEFE"/>
<rect x="68" width="162" height="72" rx="15" fill="#EBF3FF"/>
<path d="M198.762 77.2631C200.393 79.5455 203.985 78.5407 204.194 75.7434L204.758 68.2243C204.889 66.484 203.512 65 201.767 65H195.83C193.39 65 191.971 67.7585 193.39 69.744L198.762 77.2631Z" fill="#EBF3FF"/>
<path d="M95.0473 28.076C98.8318 28.0829 101.629 29.9751 101.629 32.8343C101.629 35.4931 99.3567 37.2541 96.1246 37.5718V40.8108H103.155V42.5925H87.0155V40.8108H93.97V37.5718C90.7586 37.2541 88.4865 35.4862 88.4934 32.8343C88.4865 29.9751 91.2835 28.0829 95.0473 28.076ZM90.6205 32.8343C90.6205 34.7541 92.4575 35.8867 95.0473 35.8936C97.6578 35.8867 99.4948 34.7541 99.4948 32.8343C99.4948 30.9972 97.6578 29.8232 95.0473 29.8301C92.4575 29.8232 90.6205 30.9972 90.6205 32.8343ZM117.755 30.8798V32.6202H105.566V27.3232H107.706V30.8798H117.755ZM103.48 35.7141V33.9876H119.619V35.7141H103.48ZM105.386 38.6354V36.9572H117.637V41.4599H107.603V42.8273H118.218V44.5193H105.414V39.8785H115.49V38.6354H105.386ZM134.316 35.1064V36.8329H129.095V40.866H136.125V42.6478H119.986V40.866H126.94V36.8329H121.94V28.3936H134.178V30.134H124.116V35.1064H134.316ZM149.001 28.0414V29.768H143.255V33.6975C146.46 33.6837 148.387 33.5525 150.562 33.1105L150.804 34.8025C148.435 35.3343 146.28 35.4102 142.537 35.4033H141.101V28.0414H149.001ZM142.793 38.4075V36.674H154.347V41.3633H144.961V42.7652H154.899V44.5193H142.82V39.7265H152.178V38.4075H142.793ZM152.164 35.9075V27.0884H154.347V30.5552H156.812V32.337H154.347V35.9075H152.164ZM171.681 27.0884V44.768H169.52V37.5166H166.288V35.7279H169.52V32.703H166.364V30.9282H169.52V27.0884H171.681ZM157.489 30.3481V28.6008H165.362V35.2169H159.699V38.9669C162.033 38.9461 164.05 38.8356 166.426 38.4834L166.605 40.2721C163.905 40.6934 161.654 40.7555 158.905 40.7555H157.545V33.511H163.235V30.3481H157.489ZM176.433 28.511V30.8798H181.032V28.511H183.201V36.5704H179.838V39.4019C181.288 39.3398 182.738 39.2293 184.099 39.0428L184.251 40.6381C180.549 41.2735 176.509 41.3011 173.484 41.3149L173.173 39.5193C174.513 39.5124 176.053 39.5124 177.662 39.4779V36.5704H174.285V28.511H176.433ZM176.433 34.8439H181.032V32.5304H176.433V34.8439ZM185.1 44.7265V27.0884H187.269V34.2569H189.824V36.0732H187.269V44.7265H185.1ZM206.012 40.8108V42.5925H189.873V40.8108H193.602V36.3425C192.193 35.5345 191.344 34.2707 191.35 32.703C191.344 29.8923 194.099 28.0345 197.904 28.0276C201.71 28.0345 204.486 29.8923 204.486 32.703C204.486 34.2431 203.657 35.4862 202.29 36.3011V40.8108H206.012ZM193.478 32.703C193.478 34.5124 195.259 35.6657 197.904 35.6657C200.529 35.6657 202.352 34.5124 202.352 32.703C202.352 30.866 200.529 29.7541 197.904 29.761C195.259 29.7541 193.478 30.866 193.478 32.703ZM195.75 40.8108H200.094V37.1367C199.417 37.2818 198.685 37.3577 197.904 37.3577C197.138 37.3577 196.42 37.2818 195.75 37.1367V40.8108ZM209.997 28.8564L209.776 38.8494H207.566L207.338 28.8564H209.997ZM207.159 41.6395C207.145 40.8108 207.836 40.1409 208.671 40.1409C209.486 40.1409 210.177 40.8108 210.184 41.6395C210.177 42.4751 209.486 43.1519 208.671 43.1519C207.836 43.1519 207.145 42.4751 207.159 41.6395Z" fill="#74747E"/>
<circle cx="631" cy="174" r="24" fill="#3B64F6"/>
<circle cx="631" cy="174" r="16" fill="#FEFEFE"/>
<defs>
<linearGradient id="paint0_linear_11_247" x1="366.073" y1="46.4269" x2="316.99" y2="107.626" gradientUnits="userSpaceOnUse">
<stop stop-color="#FAFAFA"/>
<stop offset="0.191" stop-color="#FEFEFE"/>
<stop offset="0.831" stop-color="#FEFEFE"/>
<stop offset="1" stop-color="#F7F7F7"/>
</linearGradient>
<linearGradient id="paint1_linear_11_247" x1="307.869" y1="121.89" x2="320.273" y2="122.43" gradientUnits="userSpaceOnUse">
<stop stop-color="#F5FBFF"/>
<stop offset="0.121" stop-color="#FEFEFE"/>
<stop offset="1" stop-color="#F7F7F7"/>
</linearGradient>
<linearGradient id="paint2_linear_11_247" x1="368.865" y1="114.45" x2="359.7" y2="122.905" gradientUnits="userSpaceOnUse">
<stop stop-color="#F5FBFF"/>
<stop offset="0.121" stop-color="#FEFEFE"/>
<stop offset="1" stop-color="#F7F7F7"/>
</linearGradient>
<linearGradient id="paint3_linear_11_247" x1="39" y1="175.5" x2="615" y2="175.5" gradientUnits="userSpaceOnUse">
<stop stop-color="#B4C9FF"/>
<stop offset="1" stop-color="#3B64F6"/>
</linearGradient>
</defs>
</svg>
